<?xml version="1.0" standalone="no"?>
<!DOCTYPE svg PUBLIC "-//W3C//DTD SVG 20010904//EN"
 "http://www.w3.org/TR/2001/REC-SVG-20010904/DTD/svg10.dtd">
<svg version="1.0" xmlns="http://www.w3.org/2000/svg"
 width="1234.000000pt" height="1280.000000pt" viewBox="0 0 1234.000000 1280.000000"
 preserveAspectRatio="xMidYMid meet">
<metadata>
Created by potrace 1.15, written by Peter Selinger 2001-2017
</metadata>
<g transform="translate(0.000000,1280.000000) scale(0.100000,-0.100000)"
fill="#000000" stroke="none">
<path d="M4680 12784 c-30 -8 -131 -46 -225 -83 -964 -389 -1469 -597 -1514
-624 -170 -102 -283 -325 -268 -532 7 -99 13 -116 186 -540 l139 -340 -27 -25
c-15 -14 -80 -69 -145 -124 -64 -54 -181 -162 -259 -240 -121 -121 -190 -195
-357 -389 l-26 -29 -264 112 c-146 62 -312 132 -368 156 -138 59 -203 74 -308
74 -201 0 -405 -124 -493 -299 -75 -147 -710 -1671 -722 -1729 -36 -186 30
-383 174 -519 76 -72 114 -91 509 -258 197 -84 361 -154 363 -156 2 -2 -3 -67
-10 -144 -23 -240 -28 -504 -15 -730 7 -115 13 -223 14 -239 l1 -29 -361 -147
c-199 -81 -385 -160 -413 -176 -201 -109 -326 -378 -282 -606 7 -35 89 -250
181 -478 93 -228 243 -599 335 -825 91 -225 180 -434 198 -463 44 -75 149
-171 228 -209 124 -61 281 -80 403 -48 33 9 220 81 417 161 197 80 362 144
367 142 5 -1 60 -64 123 -138 132 -157 399 -427 549 -554 58 -50 111 -95 118
-101 11 -10 -16 -83 -146 -391 -88 -208 -165 -403 -171 -432 -15 -74 -13 -185
4 -261 34 -145 146 -292 270 -357 106 -56 1620 -696 1702 -720 70 -20 198 -23
273 -5 165 39 307 153 393 316 27 50 46 83 44 75 -3 -10 3 -16 17 -17 11 -1
39 -6 61 -11 369 -90 982 -108 1450 -42 71 10 133 16 137 14 5 -3 3 7 -2 21
-20 54 -9 38 30 -40 119 -244 358 -378 613 -344 74 10 154 41 852 324 165 67
431 175 590 240 160 64 308 128 331 141 224 128 339 398 275 645 -11 41 -85
234 -164 429 l-145 355 36 30 c243 200 519 469 681 662 81 97 96 111 115 103
11 -4 181 -75 376 -158 195 -82 376 -154 402 -161 67 -16 213 -14 282 4 131
34 256 124 330 237 43 66 722 1671 741 1753 52 220 -45 466 -234 594 -62 42
-68 45 -496 226 -165 70 -303 130 -307 133 -4 4 -1 70 7 147 23 233 28 492 15
720 -7 116 -13 225 -14 243 l-1 33 345 140 c428 173 458 188 541 269 108 106
166 230 176 375 10 148 39 66 -427 1215 -144 355 -273 665 -287 690 -43 74
-151 173 -234 214 -126 62 -252 79 -380 52 -52 -11 -520 -193 -771 -300 l-36
-16 -90 108 c-190 227 -415 454 -628 633 -46 39 -84 73 -84 74 0 2 70 169 156
371 85 203 162 396 170 429 45 193 -11 391 -150 531 -79 80 -111 97 -356 202
-975 414 -1453 612 -1508 623 -189 36 -388 -32 -525 -180 -70 -76 -82 -100
-252 -506 -81 -192 -150 -353 -154 -357 -3 -4 -69 -1 -146 7 -240 23 -495 28
-720 15 -115 -7 -225 -13 -243 -14 l-34 -1 -150 370 c-102 250 -165 392 -195
438 -50 75 -137 154 -215 193 -116 59 -283 79 -398 48z m1798 -4474 c153 -28
302 -78 457 -156 176 -87 296 -175 446 -324 405 -404 579 -985 463 -1548 -58
-282 -217 -594 -412 -807 -233 -255 -574 -451 -902 -519 -210 -43 -488 -46
-681 -7 -454 92 -844 349 -1094 721 -341 510 -388 1147 -124 1700 164 343 456
635 799 799 177 85 398 146 590 165 100 9 348 -3 458 -24z m-633 -6801 c135
-10 239 -10 799 4 l58 2 79 -199 c44 -109 77 -201 74 -204 -3 -3 -5 0 -5 6 0
7 -3 11 -7 10 -5 -1 -66 4 -138 12 -91 11 -242 15 -505 15 -383 -1 -537 -11
-724 -50 -38 -8 -72 -13 -74 -10 -3 3 -11 -3 -19 -13 -8 -10 -6 2 6 33 21 56
118 293 151 369 l21 49 67 -7 c37 -3 135 -11 217 -17z"/>
</g>
</svg>
